<svg id="Capa_1" data-name="Capa 1" xmlns="http://www.w3.org/2000/svg" viewBox="0 0 432.6 486.4"><defs><style>.cls-1{fill:#fff;}</style></defs><title>garbage</title><path class="cls-1" d="M446,70H344.8V53.5A53.56,53.56,0,0,0,291.3,0H195.1a53.56,53.56,0,0,0-53.5,53.5V70H40.4a13.5,13.5,0,0,0,0,27H64.8V414.2A72.3,72.3,0,0,0,137,486.4H349.4a72.3,72.3,0,0,0,72.2-72.2V97H446a13.5,13.5,0,0,0,0-27ZM168.6,53.5A26.55,26.55,0,0,1,195.1,27h96.2a26.55,26.55,0,0,1,26.5,26.5V70H168.6Zm226,360.7a45.28,45.28,0,0,1-45.2,45.2H137a45.28,45.28,0,0,1-45.2-45.2V97H394.7V414.2Z" transform="translate(-26.9)"/><path class="cls-1" d="M243.2,411a13.44,13.44,0,0,0,13.5-13.5V158.9a13.5,13.5,0,0,0-27,0V397.4A13.53,13.53,0,0,0,243.2,411Z" transform="translate(-26.9)"/><path class="cls-1" d="M155.1,396.1a13.44,13.44,0,0,0,13.5-13.5V173.7a13.5,13.5,0,0,0-27,0V382.6A13.51,13.51,0,0,0,155.1,396.1Z" transform="translate(-26.9)"/><path class="cls-1" d="M331.3,396.1a13.44,13.44,0,0,0,13.5-13.5V173.7a13.5,13.5,0,0,0-27,0V382.6A13.44,13.44,0,0,0,331.3,396.1Z" transform="translate(-26.9)"/></svg>